<svg width="41" height="40" viewBox="0 0 41 40" fill="none" xmlns="http://www.w3.org/2000/svg">
<g clip-path="url(#clip0_5857_24155)">
<path d="M2.69308 32.3788H0.878704L0.502727 33.2399H0L1.54663 29.7969H2.02942L3.58175 33.2399H3.06905L2.69308 32.3788ZM2.52218 31.9855L1.78589 30.2992L1.0496 31.9855H2.5236H2.52218Z" fill="#18008C"/>
<path d="M4.08789 29.7969H4.57638V33.2399H4.08789V29.7969Z" fill="#18008C"/>
<path d="M7.16553 33.1563C6.92627 33.076 6.73828 32.9712 6.60156 32.8435L6.78243 32.4603C6.91203 32.5779 7.07865 32.6741 7.28231 32.7473C7.48596 32.8205 7.69531 32.8578 7.90894 32.8578C8.19234 32.8578 8.40312 32.809 8.54269 32.7129C8.68225 32.6167 8.75204 32.4875 8.75204 32.3268C8.75204 32.2091 8.71358 32.1129 8.63668 32.0398C8.55978 31.9666 8.46578 31.9092 8.35327 31.8704C8.24076 31.8317 8.08268 31.7872 7.87761 31.7384C7.62126 31.6767 7.41333 31.6135 7.25525 31.5518C7.09717 31.4901 6.96187 31.3939 6.85079 31.2648C6.73971 31.1356 6.68274 30.9605 6.68274 30.7409C6.68274 30.5572 6.73116 30.3922 6.82658 30.2443C6.922 30.0965 7.06869 29.9788 7.26379 29.8898C7.4589 29.8009 7.70101 29.7578 7.99011 29.7578C8.19234 29.7578 8.3903 29.7836 8.58541 29.8367C8.78052 29.8898 8.94857 29.9645 9.08814 30.0635L8.92721 30.4567C8.78337 30.3649 8.63098 30.296 8.46863 30.2472C8.30628 30.1984 8.14677 30.1755 7.99011 30.1755C7.71383 30.1755 7.5059 30.2257 7.36776 30.3276C7.22962 30.4295 7.15983 30.5601 7.15983 30.7208C7.15983 30.8385 7.19828 30.9347 7.27661 31.0079C7.35494 31.0811 7.45178 31.1385 7.56714 31.1801C7.6825 31.2217 7.83915 31.2648 8.03853 31.3107C8.29488 31.3724 8.50281 31.4355 8.65804 31.4973C8.8147 31.559 8.94857 31.6551 9.06108 31.7829C9.17359 31.9106 9.22913 32.0828 9.22913 32.2995C9.22913 32.4804 9.18071 32.6454 9.08244 32.7932C8.98417 32.9425 8.83606 33.0602 8.6381 33.1477C8.44015 33.2353 8.19519 33.2783 7.90609 33.2783C7.64832 33.2783 7.40051 33.2381 7.16126 33.1578L7.16553 33.1563Z" fill="#18008C"/>
<path d="M10.8824 32.0239L10.3455 32.5248V33.2381H9.87695V29.5898H10.3455V31.9306L11.7554 30.6318H12.3222L11.2342 31.7082L12.429 33.2381H11.8537L10.8824 32.0239Z" fill="#18008C"/>
<path d="M12.8553 30.0409C12.7955 29.9821 12.7656 29.9103 12.7656 29.8242C12.7656 29.7381 12.7955 29.6663 12.8553 29.606C12.9152 29.5458 12.9906 29.5156 13.0818 29.5156C13.1729 29.5156 13.2484 29.5443 13.3082 29.6017C13.368 29.6591 13.398 29.7309 13.398 29.8156C13.398 29.9003 13.368 29.9792 13.3082 30.0395C13.2484 30.0997 13.1729 30.1299 13.0818 30.1299C12.9906 30.1299 12.9152 30.0997 12.8553 30.0409ZM12.8482 30.6322H13.3168V33.2385H12.8482V30.6322Z" fill="#18008C"/>
<path d="M14.2109 29.5898H14.6795V33.2381H14.2109V29.5898Z" fill="#18008C"/>
<path d="M15.5723 29.5898H16.0408V33.2381H15.5723V29.5898Z" fill="#18008C"/>
<path d="M17.064 33.1816C16.8689 33.1242 16.7166 33.051 16.6055 32.962L16.8006 32.5889C16.9145 32.6707 17.0527 32.7367 17.215 32.7855C17.3774 32.8343 17.5426 32.8587 17.7078 32.8587C18.1179 32.8587 18.323 32.741 18.323 32.5042C18.323 32.4253 18.2959 32.3636 18.2404 32.3176C18.1849 32.2717 18.1165 32.2387 18.0325 32.2172C17.9484 32.1957 17.8317 32.1727 17.6793 32.1454C17.4714 32.1124 17.3005 32.0751 17.1694 32.032C17.0384 31.989 16.9245 31.9172 16.8305 31.8153C16.7365 31.7134 16.6895 31.5713 16.6895 31.3876C16.6895 31.1523 16.7878 30.9628 16.9829 30.8193C17.178 30.6772 17.44 30.6055 17.769 30.6055C17.9413 30.6055 18.1136 30.627 18.286 30.6701C18.4583 30.7131 18.5993 30.7705 18.7104 30.8423L18.511 31.2154C18.2988 31.0776 18.051 31.0088 17.7647 31.0088C17.5668 31.0088 17.4144 31.0418 17.3104 31.1078C17.2065 31.1738 17.1538 31.2599 17.1538 31.369C17.1538 31.4537 17.1837 31.5211 17.2421 31.5713C17.3005 31.6216 17.3731 31.656 17.4585 31.679C17.544 31.702 17.6665 31.7278 17.8217 31.7579C18.0296 31.7938 18.1977 31.8326 18.3273 31.8727C18.4554 31.9144 18.5651 31.9832 18.6563 32.0823C18.7474 32.1799 18.793 32.3176 18.793 32.4956C18.793 32.731 18.6933 32.919 18.4925 33.0582C18.2931 33.1974 18.0197 33.2677 17.675 33.2677C17.4642 33.2677 17.2606 33.239 17.0655 33.1816H17.064Z" fill="#18008C"/>
<path d="M21.4363 30.2246H20.2656V29.7969H23.0911V30.2246H21.9205V33.2384H21.4377V30.2246H21.4363Z" fill="#18008C"/>
<path d="M24.3025 30.7271C24.462 30.6481 24.6557 30.6094 24.8836 30.6094V31.0672C24.858 31.0643 24.8223 31.0629 24.7768 31.0629C24.5233 31.0629 24.3239 31.139 24.1786 31.2911C24.0334 31.4432 23.9607 31.6614 23.9607 31.9427V33.2415H23.4922V30.6352H23.9408V31.0729C24.022 30.9222 24.143 30.8074 24.3025 30.7285V30.7271Z" fill="#18008C"/>
<path d="M27.2173 30.8734C27.4081 31.05 27.5021 31.3141 27.5021 31.6657V33.2386H27.0578V32.8942C26.9795 33.0162 26.8684 33.108 26.7231 33.1726C26.5778 33.2372 26.4069 33.2688 26.2076 33.2688C25.9185 33.2688 25.6863 33.1984 25.5126 33.0578C25.3388 32.9171 25.252 32.732 25.252 32.5024C25.252 32.2728 25.3346 32.089 25.5012 31.9498C25.6678 31.8106 25.9299 31.7403 26.2916 31.7403H27.0336V31.647C27.0336 31.4432 26.9752 31.2882 26.8584 31.1806C26.7416 31.0729 26.5693 31.0184 26.3414 31.0184C26.189 31.0184 26.0395 31.0442 25.8928 31.0945C25.7461 31.1447 25.6222 31.2136 25.5225 31.2983L25.3274 30.9438C25.4613 30.8361 25.6208 30.7529 25.8059 30.6955C25.9911 30.6381 26.1876 30.6094 26.397 30.6094C26.7544 30.6094 27.0293 30.6984 27.2187 30.8749L27.2173 30.8734ZM26.7516 32.7851C26.8812 32.7047 26.9766 32.5914 27.035 32.4435V32.079H26.3129C25.9156 32.079 25.7177 32.2139 25.7177 32.4823C25.7177 32.6129 25.7675 32.7162 25.8686 32.7923C25.9697 32.8684 26.1093 32.9057 26.2887 32.9057C26.4682 32.9057 26.622 32.8655 26.7516 32.7851Z" fill="#18008C"/>
<path d="M28.3768 30.0409C28.317 29.9821 28.2871 29.9103 28.2871 29.8242C28.2871 29.7381 28.317 29.6663 28.3768 29.606C28.4366 29.5458 28.5121 29.5156 28.6033 29.5156C28.6944 29.5156 28.7699 29.5443 28.8297 29.6017C28.8895 29.6591 28.9194 29.7309 28.9194 29.8156C28.9194 29.9003 28.8895 29.9792 28.8297 30.0395C28.7699 30.0997 28.6944 30.1299 28.6033 30.1299C28.5121 30.1299 28.4366 30.0997 28.3768 30.0409ZM28.3697 30.6322H28.8383V33.2385H28.3697V30.6322Z" fill="#18008C"/>
<path d="M31.8977 30.8939C32.0914 31.0863 32.1882 31.3676 32.1882 31.7378V33.2376H31.7196V31.7924C31.7196 31.5398 31.6598 31.3503 31.5388 31.2212C31.4177 31.0934 31.2454 31.0288 31.0218 31.0288C30.7683 31.0288 30.5675 31.1035 30.4222 31.2527C30.2756 31.402 30.2029 31.6158 30.2029 31.8943V33.2362H29.7344V30.6299H30.183V31.0231C30.277 30.8882 30.4052 30.7849 30.5661 30.7131C30.727 30.6413 30.9107 30.6055 31.1144 30.6055C31.4434 30.6055 31.704 30.7016 31.8977 30.8925V30.8939Z" fill="#18008C"/>
<path d="M33.0624 30.0409C33.0026 29.9821 32.9727 29.9103 32.9727 29.8242C32.9727 29.7381 33.0026 29.6663 33.0624 29.606C33.1222 29.5458 33.1977 29.5156 33.2888 29.5156C33.38 29.5156 33.4554 29.5443 33.5153 29.6017C33.5751 29.6591 33.605 29.7309 33.605 29.8156C33.605 29.9003 33.5751 29.9792 33.5153 30.0395C33.4554 30.0997 33.38 30.1299 33.2888 30.1299C33.1977 30.1299 33.1222 30.0997 33.0624 30.0409ZM33.0553 30.6322H33.5238V33.2385H33.0553V30.6322Z" fill="#18008C"/>
<path d="M36.5813 30.8939C36.7749 31.0863 36.8718 31.3676 36.8718 31.7378V33.2376H36.4032V31.7924C36.4032 31.5398 36.3434 31.3503 36.2224 31.2212C36.1013 31.0934 35.929 31.0288 35.7054 31.0288C35.4519 31.0288 35.2511 31.1035 35.1058 31.2527C34.9591 31.402 34.8865 31.6158 34.8865 31.8943V33.2362H34.418V30.6299H34.8666V31.0231C34.9606 30.8882 35.0887 30.7849 35.2497 30.7131C35.4106 30.6413 35.5943 30.6055 35.798 30.6055C36.127 30.6055 36.3876 30.7016 36.5813 30.8925V30.8939Z" fill="#18008C"/>
<path d="M40.2286 30.6338V32.8856C40.2286 33.3405 40.1161 33.6778 39.8925 33.8959C39.6675 34.1141 39.3328 34.2232 38.8871 34.2232C38.6436 34.2232 38.41 34.1902 38.1892 34.1227C37.9685 34.0552 37.7891 33.9591 37.6523 33.8357L37.8774 33.4711C37.997 33.5759 38.1465 33.6591 38.3231 33.7194C38.5011 33.7797 38.6834 33.8098 38.8728 33.8098C39.1748 33.8098 39.3984 33.7381 39.5436 33.5931C39.6889 33.4482 39.7601 33.2286 39.7601 32.9344V32.7277C39.649 32.8626 39.5137 32.9631 39.3528 33.0305C39.1919 33.098 39.0167 33.131 38.8287 33.131C38.5809 33.131 38.3573 33.0779 38.1579 32.9717C37.9571 32.8655 37.8005 32.7162 37.6865 32.5239C37.5726 32.3316 37.5156 32.1134 37.5156 31.868C37.5156 31.6226 37.5726 31.403 37.6865 31.2122C37.8005 31.0198 37.9571 30.872 38.1579 30.7672C38.3573 30.6625 38.5809 30.6094 38.8287 30.6094C39.0238 30.6094 39.2047 30.6453 39.3727 30.717C39.5408 30.7888 39.6775 30.8964 39.7857 31.0371V30.6338H40.2301H40.2286ZM39.3385 32.61C39.4738 32.5383 39.5792 32.4364 39.6561 32.3072C39.733 32.178 39.7715 32.0316 39.7715 31.8666C39.7715 31.614 39.6889 31.4102 39.5223 31.2538C39.3556 31.0973 39.1434 31.0198 38.8828 31.0198C38.6222 31.0198 38.4043 31.0973 38.2391 31.2538C38.0739 31.4088 37.9899 31.614 37.9899 31.8666C37.9899 32.0302 38.0283 32.1766 38.1052 32.3072C38.1821 32.4364 38.2875 32.5383 38.4228 32.61C38.5581 32.6818 38.7119 32.7177 38.8842 32.7177C39.0566 32.7177 39.2061 32.6818 39.34 32.61H39.3385Z" fill="#18008C"/>
<path d="M1.26677 35.2562C1.375 35.3581 1.43054 35.5088 1.43054 35.7082V36.6081H1.17704V36.4115C1.13289 36.4804 1.06881 36.5335 0.986207 36.5708C0.903606 36.6067 0.805339 36.6253 0.691407 36.6253C0.526205 36.6253 0.393758 36.5851 0.294068 36.5048C0.194377 36.4244 0.144531 36.3182 0.144531 36.1876C0.144531 36.057 0.191528 35.9508 0.286947 35.8719C0.382365 35.7929 0.531901 35.7527 0.738404 35.7527H1.1628V35.6996C1.1628 35.5834 1.13005 35.4944 1.06311 35.4327C0.996176 35.371 0.897909 35.3394 0.766887 35.3394C0.680014 35.3394 0.594564 35.3538 0.510539 35.3825C0.426514 35.4112 0.35673 35.4499 0.29834 35.4987L0.187256 35.2963C0.26416 35.2346 0.353882 35.1873 0.460694 35.1543C0.566081 35.1213 0.678589 35.1055 0.798218 35.1055C1.0033 35.1055 1.15995 35.1557 1.26819 35.2576L1.26677 35.2562ZM1.00045 36.3483C1.0745 36.3024 1.12862 36.2378 1.1628 36.1532V35.945H0.749797C0.523356 35.945 0.409424 36.0225 0.409424 36.1761C0.409424 36.2507 0.437907 36.3096 0.496298 36.3526C0.553264 36.3957 0.634441 36.4172 0.735556 36.4172C0.836671 36.4172 0.926392 36.3943 1.00045 36.3483Z" fill="#18008C"/>
<path d="M3.1639 35.2691C3.27498 35.3782 3.33053 35.5389 3.33053 35.7513V36.6081H3.06279V35.7814C3.06279 35.6379 3.02861 35.5288 2.96025 35.4557C2.89189 35.3825 2.79362 35.3466 2.66402 35.3466C2.51876 35.3466 2.40483 35.3896 2.3208 35.4743C2.23678 35.559 2.19548 35.6824 2.19548 35.8403V36.6081H1.92773V35.1184H2.18408V35.3437C2.2382 35.2662 2.31083 35.2074 2.4034 35.1672C2.49597 35.127 2.59994 35.1055 2.71672 35.1055C2.9047 35.1055 3.05424 35.16 3.1639 35.2691Z" fill="#18008C"/>
<path d="M5.22823 34.5249V36.6102H4.97188V36.3748C4.91207 36.4566 4.83659 36.5198 4.74544 36.5628C4.6543 36.6059 4.55461 36.6274 4.44495 36.6274C4.30111 36.6274 4.17293 36.5958 4.06043 36.5313C3.94649 36.4681 3.8582 36.3777 3.79411 36.2629C3.73002 36.1481 3.69727 36.0146 3.69727 35.8653C3.69727 35.7161 3.73002 35.584 3.79411 35.4692C3.8582 35.3544 3.94649 35.2654 4.06043 35.2023C4.17436 35.1391 4.30253 35.1061 4.44495 35.1061C4.55033 35.1061 4.6486 35.1262 4.73832 35.1664C4.82804 35.2066 4.9021 35.2654 4.96192 35.3444V34.5234H5.22966L5.22823 34.5249ZM4.71981 36.3246C4.79671 36.2801 4.8551 36.2184 4.89783 36.1395C4.94055 36.0605 4.96192 35.9687 4.96192 35.8653C4.96192 35.762 4.94055 35.6716 4.89783 35.5912C4.8551 35.5123 4.79529 35.4506 4.71981 35.4075C4.64433 35.3645 4.55888 35.3429 4.46631 35.3429C4.37374 35.3429 4.28687 35.3645 4.21139 35.4075C4.13591 35.4506 4.07609 35.5123 4.03337 35.5912C3.99064 35.6701 3.96786 35.762 3.96786 35.8653C3.96786 35.9687 3.98922 36.0591 4.03337 36.1395C4.07752 36.2198 4.13591 36.2815 4.21139 36.3246C4.28687 36.3691 4.37232 36.3906 4.46631 36.3906C4.5603 36.3906 4.64433 36.3691 4.71981 36.3246Z" fill="#18008C"/>
<path d="M9.28255 34.6445L8.63029 36.6122H8.33692L7.80428 35.0406L7.27165 36.6122H6.97258L6.32031 34.6445H6.60799L7.13493 36.2433L7.68465 34.6445H7.941L8.47933 36.2519L9.01766 34.6445H9.28255Z" fill="#18008C"/>
<path d="M9.70854 36.5263C9.59176 36.4603 9.49919 36.3699 9.43367 36.255C9.36816 36.1402 9.33398 36.0096 9.33398 35.8632C9.33398 35.7169 9.36674 35.5863 9.43367 35.4714C9.49919 35.3566 9.59176 35.2662 9.70854 35.2016C9.82532 35.137 9.95776 35.1055 10.1045 35.1055C10.2511 35.1055 10.3822 35.137 10.4989 35.2016C10.6157 35.2662 10.7069 35.3566 10.7724 35.4714C10.8379 35.5863 10.8721 35.7169 10.8721 35.8632C10.8721 36.0096 10.8393 36.1402 10.7724 36.255C10.7054 36.3699 10.6157 36.4603 10.4989 36.5263C10.3822 36.5923 10.2511 36.6239 10.1045 36.6239C9.95776 36.6239 9.82532 36.5909 9.70854 36.5263ZM10.3594 36.3225C10.4349 36.278 10.4932 36.2163 10.536 36.1374C10.5787 36.0584 10.6001 35.9666 10.6001 35.8632C10.6001 35.7599 10.5787 35.6695 10.536 35.5891C10.4932 35.5102 10.4349 35.4485 10.3594 35.4054C10.2839 35.3624 10.1984 35.3408 10.1045 35.3408C10.0105 35.3408 9.92501 35.3624 9.84953 35.4054C9.77405 35.4485 9.71423 35.5102 9.67151 35.5891C9.62878 35.6681 9.606 35.7599 9.606 35.8632C9.606 35.9666 9.62736 36.057 9.67151 36.1374C9.71566 36.2177 9.77405 36.2794 9.84953 36.3225C9.92501 36.367 10.0105 36.3885 10.1045 36.3885C10.1984 36.3885 10.2839 36.367 10.3594 36.3225Z" fill="#18008C"/>
<path d="M11.705 35.1729C11.7962 35.1284 11.9073 35.1055 12.0369 35.1055V35.3667C12.0226 35.3652 12.0013 35.3638 11.9756 35.3638C11.8304 35.3638 11.7164 35.4069 11.6338 35.4944C11.5512 35.5819 11.5099 35.7054 11.5099 35.8661V36.6081H11.2422V35.1184H11.4985V35.3681C11.5455 35.282 11.6139 35.216 11.705 35.1715V35.1729Z" fill="#18008C"/>
<path d="M12.9392 35.918L12.633 36.2051V36.6127H12.3652V34.5273H12.633V35.8649L13.439 35.1229H13.7623L13.14 35.7386L13.8236 36.6127H13.4946L12.9392 35.918Z" fill="#18008C"/>
<path d="M14.3857 34.9915V35.1206H14.8158V35.3431H14.3914V36.6104H14.1237V35.3431H13.873V35.1206H14.1237V34.9886C14.1237 34.8408 14.1664 34.7231 14.2519 34.637C14.3373 34.5509 14.4569 34.5078 14.6122 34.5078C14.672 34.5078 14.7275 34.515 14.7788 34.5308C14.8315 34.5466 14.8757 34.5667 14.9127 34.5954L14.8315 34.8006C14.7703 34.7532 14.7019 34.7303 14.625 34.7303C14.4655 34.7303 14.3857 34.8178 14.3857 34.9915Z" fill="#18008C"/>
<path d="M15.2828 36.5263C15.166 36.4603 15.0734 36.3699 15.0079 36.255C14.9424 36.1402 14.9082 36.0096 14.9082 35.8632C14.9082 35.7169 14.941 35.5863 15.0079 35.4714C15.0734 35.3566 15.166 35.2662 15.2828 35.2016C15.3995 35.137 15.532 35.1055 15.6787 35.1055C15.8254 35.1055 15.9564 35.137 16.0732 35.2016C16.1899 35.2662 16.2811 35.3566 16.3466 35.4714C16.4121 35.5863 16.4463 35.7169 16.4463 35.8632C16.4463 36.0096 16.4135 36.1402 16.3466 36.255C16.2797 36.3699 16.1899 36.4603 16.0732 36.5263C15.9564 36.5923 15.8254 36.6239 15.6787 36.6239C15.532 36.6239 15.3995 36.5909 15.2828 36.5263ZM15.9336 36.3225C16.0091 36.278 16.0675 36.2163 16.1102 36.1374C16.1529 36.0584 16.1743 35.9666 16.1743 35.8632C16.1743 35.7599 16.1529 35.6695 16.1102 35.5891C16.0675 35.5102 16.0091 35.4485 15.9336 35.4054C15.8581 35.3624 15.7727 35.3408 15.6787 35.3408C15.5847 35.3408 15.4992 35.3624 15.4237 35.4054C15.3483 35.4485 15.2885 35.5102 15.2457 35.5891C15.203 35.6681 15.1802 35.7599 15.1802 35.8632C15.1802 35.9666 15.2016 36.057 15.2457 36.1374C15.2899 36.2177 15.3483 36.2794 15.4237 36.3225C15.4992 36.367 15.5847 36.3885 15.6787 36.3885C15.7727 36.3885 15.8581 36.367 15.9336 36.3225Z" fill="#18008C"/>
<path d="M17.2793 35.1729C17.3704 35.1284 17.4815 35.1055 17.6111 35.1055V35.3667C17.5968 35.3652 17.5755 35.3638 17.5498 35.3638C17.4046 35.3638 17.2906 35.4069 17.208 35.4944C17.1254 35.5819 17.0841 35.7054 17.0841 35.8661V36.6081H16.8164V35.1184H17.0728V35.3681C17.1198 35.282 17.1881 35.216 17.2793 35.1715V35.1729Z" fill="#18008C"/>
<path d="M18.1679 36.5263C18.0497 36.4603 17.9571 36.3699 17.8902 36.255C17.8232 36.1402 17.7891 36.0096 17.7891 35.8632C17.7891 35.7169 17.8218 35.5863 17.8902 35.4714C17.9571 35.3566 18.0497 35.2662 18.1679 35.2016C18.2861 35.137 18.42 35.1055 18.5709 35.1055C18.7048 35.1055 18.8244 35.1327 18.9298 35.1873C19.0352 35.2418 19.1164 35.3207 19.1733 35.4226L18.9697 35.5547C18.9227 35.4829 18.8657 35.4298 18.7974 35.3939C18.729 35.3581 18.6521 35.3408 18.5681 35.3408C18.4712 35.3408 18.3844 35.3624 18.3075 35.4054C18.2306 35.4485 18.1693 35.5102 18.1266 35.5891C18.0839 35.6681 18.0611 35.7599 18.0611 35.8632C18.0611 35.9666 18.0824 36.0599 18.1266 36.1402C18.1707 36.2206 18.2306 36.2809 18.3075 36.3239C18.3844 36.367 18.4712 36.3885 18.5681 36.3885C18.6521 36.3885 18.7276 36.3713 18.7974 36.3354C18.8671 36.2995 18.9241 36.2464 18.9697 36.1747L19.1733 36.3038C19.1164 36.4072 19.0338 36.4861 18.9298 36.5407C18.8244 36.5952 18.7048 36.6239 18.5709 36.6239C18.42 36.6239 18.2861 36.5909 18.1679 36.5263Z" fill="#18008C"/>
<path d="M20.8257 35.9537H19.6266C19.6437 36.0843 19.7006 36.1905 19.7975 36.2694C19.8958 36.3483 20.0168 36.3885 20.1606 36.3885C20.3372 36.3885 20.4797 36.3282 20.5879 36.2091L20.736 36.3828C20.6691 36.4617 20.5865 36.522 20.4868 36.5622C20.3871 36.6024 20.276 36.6239 20.1535 36.6239C19.9969 36.6239 19.8587 36.5923 19.7377 36.5277C19.6166 36.4632 19.524 36.3727 19.4571 36.2565C19.3916 36.1402 19.3574 36.0096 19.3574 35.8632C19.3574 35.7169 19.3902 35.5891 19.4543 35.4729C19.5184 35.3566 19.6067 35.2662 19.7192 35.2016C19.8317 35.137 19.9584 35.1055 20.0994 35.1055C20.2404 35.1055 20.3671 35.137 20.4768 35.2016C20.5879 35.2662 20.6733 35.3566 20.736 35.4729C20.7987 35.5891 20.83 35.7226 20.83 35.8719C20.83 35.8919 20.8286 35.9192 20.8243 35.9537H20.8257ZM19.779 35.4499C19.6921 35.5288 19.6423 35.6322 19.6266 35.7585H20.5751C20.5608 35.6336 20.5096 35.5303 20.4227 35.4513C20.3358 35.3724 20.229 35.3322 20.1008 35.3322C19.9727 35.3322 19.8658 35.371 19.779 35.4499Z" fill="#18008C"/>
<path d="M21.9922 34.6421H22.8153C23.0219 34.6421 23.2041 34.6837 23.3651 34.7655C23.5246 34.8473 23.6485 34.9635 23.7368 35.1128C23.8251 35.2621 23.8692 35.4328 23.8692 35.6252C23.8692 35.8175 23.8251 35.9897 23.7368 36.1375C23.6485 36.2868 23.5246 36.4016 23.3651 36.4848C23.2056 36.5666 23.0219 36.6083 22.8153 36.6083H21.9922V34.6406V34.6421ZM22.7983 36.3643C22.9563 36.3643 23.0959 36.3327 23.2155 36.271C23.3352 36.2093 23.4277 36.1232 23.4932 36.0112C23.5588 35.8993 23.5915 35.7715 23.5915 35.6252C23.5915 35.4788 23.5588 35.3496 23.4932 35.2391C23.4277 35.1286 23.3352 35.041 23.2155 34.9793C23.0959 34.9176 22.9563 34.886 22.7983 34.886H22.2713V36.3643H22.7983Z" fill="#18008C"/>
<path d="M25.5855 35.9537H24.3864C24.4034 36.0843 24.4604 36.1905 24.5573 36.2694C24.6541 36.3483 24.7766 36.3885 24.9204 36.3885C25.097 36.3885 25.2394 36.3282 25.3477 36.2091L25.4958 36.3828C25.4288 36.4617 25.3462 36.522 25.2465 36.5622C25.1469 36.6024 25.0358 36.6239 24.9133 36.6239C24.7566 36.6239 24.6185 36.5923 24.4974 36.5277C24.3764 36.4632 24.2838 36.3727 24.2169 36.2565C24.1514 36.1402 24.1172 36.0096 24.1172 35.8632C24.1172 35.7169 24.1499 35.5891 24.214 35.4729C24.2781 35.3566 24.3664 35.2662 24.4789 35.2016C24.5914 35.137 24.7182 35.1055 24.8592 35.1055C25.0002 35.1055 25.1269 35.137 25.2366 35.2016C25.3462 35.2662 25.4331 35.3566 25.4958 35.4729C25.5584 35.5891 25.5898 35.7226 25.5898 35.8719C25.5898 35.8919 25.5883 35.9192 25.5841 35.9537H25.5855ZM24.5387 35.4499C24.4519 35.5288 24.402 35.6322 24.3864 35.7585H25.3348C25.3206 35.6336 25.2693 35.5303 25.1825 35.4513C25.0956 35.3724 24.9888 35.3322 24.8606 35.3322C24.7324 35.3322 24.6256 35.371 24.5387 35.4499Z" fill="#18008C"/>
<path d="M27.2424 35.1211L26.5958 36.6108H26.3223L25.6758 35.1211H25.9549L26.4619 36.3152L26.9803 35.1211H27.2424Z" fill="#18008C"/>
<path d="M28.7828 35.9537H27.5836C27.6007 36.0843 27.6577 36.1905 27.7545 36.2694C27.8514 36.3483 27.9738 36.3885 28.1177 36.3885C28.2943 36.3885 28.4367 36.3282 28.5449 36.2091L28.693 36.3828C28.6261 36.4617 28.5435 36.522 28.4438 36.5622C28.3441 36.6024 28.233 36.6239 28.1106 36.6239C27.9539 36.6239 27.8158 36.5923 27.6947 36.5277C27.5737 36.4632 27.4811 36.3727 27.4141 36.2565C27.3486 36.1402 27.3145 36.0096 27.3145 35.8632C27.3145 35.7169 27.3472 35.5891 27.4113 35.4729C27.4754 35.3566 27.5637 35.2662 27.6762 35.2016C27.7887 35.137 27.9154 35.1055 28.0564 35.1055C28.1974 35.1055 28.3242 35.137 28.4338 35.2016C28.5435 35.2662 28.6304 35.3566 28.693 35.4729C28.7557 35.5891 28.787 35.7226 28.787 35.8719C28.787 35.8919 28.7856 35.9192 28.7813 35.9537H28.7828ZM27.7346 35.4499C27.6477 35.5288 27.5979 35.6322 27.5822 35.7585H28.5307C28.5164 35.6336 28.4652 35.5303 28.3783 35.4513C28.2914 35.3724 28.1846 35.3322 28.0564 35.3322C27.9283 35.3322 27.8215 35.371 27.7346 35.4499Z" fill="#18008C"/>
<path d="M29.1582 34.5234H29.4259V36.6088H29.1582V34.5234Z" fill="#18008C"/>
<path d="M30.1734 36.5263C30.0566 36.4603 29.964 36.3699 29.8985 36.255C29.833 36.1402 29.7988 36.0096 29.7988 35.8632C29.7988 35.7169 29.8316 35.5863 29.8985 35.4714C29.964 35.3566 30.0566 35.2662 30.1734 35.2016C30.2902 35.137 30.4226 35.1055 30.5693 35.1055C30.716 35.1055 30.847 35.137 30.9638 35.2016C31.0806 35.2662 31.1717 35.3566 31.2372 35.4714C31.3027 35.5863 31.3355 35.7169 31.3355 35.8632C31.3355 36.0096 31.3027 36.1402 31.2372 36.255C31.1717 36.3699 31.0806 36.4603 30.9638 36.5263C30.847 36.5923 30.716 36.6239 30.5693 36.6239C30.4226 36.6239 30.2902 36.5909 30.1734 36.5263ZM30.8242 36.3225C30.8997 36.278 30.9581 36.2163 31.0008 36.1374C31.0435 36.0584 31.0649 35.9666 31.0649 35.8632C31.0649 35.7599 31.0435 35.6695 31.0008 35.5891C30.9581 35.5102 30.8997 35.4485 30.8242 35.4054C30.7487 35.3624 30.6633 35.3408 30.5693 35.3408C30.4753 35.3408 30.3899 35.3624 30.3144 35.4054C30.2389 35.4485 30.1791 35.5102 30.1364 35.5891C30.0936 35.6681 30.0708 35.7599 30.0708 35.8632C30.0708 35.9666 30.0922 36.057 30.1364 36.1374C30.1805 36.2177 30.2389 36.2794 30.3144 36.3225C30.3899 36.367 30.4753 36.3885 30.5693 36.3885C30.6633 36.3885 30.7487 36.367 30.8242 36.3225Z" fill="#18008C"/>
<path d="M32.8743 35.2002C32.9882 35.2633 33.0765 35.3523 33.1406 35.4671C33.2047 35.5819 33.2375 35.714 33.2375 35.8632C33.2375 36.0125 33.2047 36.146 33.1406 36.2608C33.0765 36.3756 32.9882 36.466 32.8743 36.5292C32.7604 36.5923 32.6322 36.6253 32.4898 36.6253C32.3844 36.6253 32.2861 36.6052 32.1978 36.5636C32.1095 36.522 32.0341 36.4617 31.9728 36.3842V37.1549H31.7051V35.1198H31.9614V35.3552C32.0212 35.2734 32.0967 35.2102 32.1879 35.1686C32.279 35.127 32.3787 35.1055 32.4884 35.1055C32.6322 35.1055 32.7604 35.137 32.8729 35.2016L32.8743 35.2002ZM32.7219 36.3225C32.7974 36.278 32.8572 36.2163 32.8999 36.1374C32.9441 36.0584 32.9655 35.9666 32.9655 35.8632C32.9655 35.7599 32.9441 35.6695 32.8999 35.5891C32.8558 35.5102 32.7974 35.4485 32.7219 35.4054C32.6464 35.3624 32.561 35.3408 32.467 35.3408C32.373 35.3408 32.2904 35.3624 32.2149 35.4069C32.1394 35.4513 32.0796 35.5116 32.0369 35.5906C31.9942 35.6695 31.9714 35.7599 31.9714 35.8632C31.9714 35.9666 31.9928 36.057 32.0355 36.1374C32.0782 36.2163 32.138 36.2794 32.2135 36.3225C32.289 36.367 32.3744 36.3885 32.467 36.3885C32.5596 36.3885 32.6464 36.367 32.7219 36.3225Z" fill="#18008C"/>
<path d="M35.8994 35.2676C36.0077 35.3767 36.0632 35.5375 36.0632 35.7513V36.6081H35.7955V35.7814C35.7955 35.6379 35.7627 35.5288 35.6972 35.4557C35.6317 35.3825 35.5363 35.3466 35.4138 35.3466C35.2785 35.3466 35.1702 35.3896 35.0905 35.4743C35.0107 35.559 34.9709 35.6824 34.9709 35.8403V36.6081H34.7031V35.7814C34.7031 35.6379 34.6704 35.5288 34.6034 35.4557C34.5379 35.3825 34.4425 35.3466 34.32 35.3466C34.1847 35.3466 34.0765 35.3896 33.9967 35.4743C33.917 35.559 33.8771 35.6824 33.8771 35.8403V36.6081H33.6094V35.1184H33.8657V35.3408C33.9198 35.2633 33.9896 35.2059 34.0779 35.1657C34.1648 35.1256 34.2645 35.1055 34.3756 35.1055C34.4867 35.1055 34.5935 35.1284 34.6818 35.1758C34.7715 35.2232 34.8398 35.2906 34.8883 35.381C34.9438 35.2949 35.0221 35.2275 35.1204 35.1787C35.2187 35.1299 35.3326 35.1055 35.4565 35.1055C35.6431 35.1055 35.7898 35.16 35.898 35.2676H35.8994Z" fill="#18008C"/>
<path d="M37.8941 35.9537H36.6949C36.712 36.0843 36.769 36.1905 36.8658 36.2694C36.9627 36.3483 37.0852 36.3885 37.229 36.3885C37.4056 36.3885 37.548 36.3282 37.6563 36.2091L37.8044 36.3828C37.7374 36.4617 37.6548 36.522 37.5551 36.5622C37.4554 36.6024 37.3444 36.6239 37.2219 36.6239C37.0652 36.6239 36.9271 36.5923 36.806 36.5277C36.685 36.4632 36.5924 36.3727 36.5255 36.2565C36.46 36.1402 36.4258 36.0096 36.4258 35.8632C36.4258 35.7169 36.4585 35.5891 36.5226 35.4729C36.5867 35.3566 36.675 35.2662 36.7875 35.2016C36.9 35.137 37.0268 35.1055 37.1678 35.1055C37.3088 35.1055 37.4355 35.137 37.5452 35.2016C37.6548 35.2662 37.7417 35.3566 37.8044 35.4729C37.867 35.5891 37.8984 35.7226 37.8984 35.8719C37.8984 35.8919 37.8969 35.9192 37.8927 35.9537H37.8941ZM36.8473 35.4499C36.7605 35.5288 36.7106 35.6322 36.6949 35.7585H37.6434C37.6292 35.6336 37.5779 35.5303 37.491 35.4513C37.4042 35.3724 37.2974 35.3322 37.1692 35.3322C37.041 35.3322 36.9342 35.371 36.8473 35.4499Z" fill="#18008C"/>
<path d="M39.5076 35.2691C39.6187 35.3782 39.6743 35.5389 39.6743 35.7513V36.6081H39.4065V35.7814C39.4065 35.6379 39.3724 35.5288 39.304 35.4557C39.2356 35.3825 39.1374 35.3466 39.0078 35.3466C38.8625 35.3466 38.7486 35.3896 38.6645 35.4743C38.5805 35.559 38.5392 35.6824 38.5392 35.8403V36.6081H38.2715V35.1184H38.5278V35.3437C38.5819 35.2662 38.6546 35.2074 38.7472 35.1672C38.8397 35.127 38.9437 35.1055 39.0605 35.1055C39.2485 35.1055 39.398 35.16 39.5076 35.2691Z" fill="#18008C"/>
<path d="M40.9995 36.5209C40.9611 36.5554 40.9126 36.5812 40.8542 36.5984C40.7959 36.6157 40.7375 36.6257 40.6762 36.6257C40.5281 36.6257 40.4128 36.5855 40.3302 36.5051C40.249 36.4248 40.2077 36.31 40.2077 36.1593V35.3412H39.957V35.1188H40.2077V34.793H40.4754V35.1188H40.8998V35.3412H40.4754V36.1478C40.4754 36.2282 40.4954 36.2899 40.5352 36.3329C40.5751 36.376 40.6321 36.3975 40.7061 36.3975C40.7873 36.3975 40.8571 36.3745 40.9155 36.3272L40.9995 36.5209Z" fill="#18008C"/>
<path d="M0.559571 38.3626V38.4917H0.989666V38.7142H0.565267V39.9814H0.297526V38.7142H0.046875V38.4917H0.297526V38.3597C0.297526 38.2119 0.340251 38.0942 0.4257 38.0081C0.51115 37.922 0.630779 37.8789 0.786012 37.8789C0.845826 37.8789 0.901368 37.8861 0.952638 37.9019C1.00533 37.9177 1.04948 37.9377 1.08651 37.9665L1.00533 38.1717C0.944093 38.1243 0.875733 38.1014 0.798829 38.1014C0.639324 38.1014 0.559571 38.1889 0.559571 38.3626Z" fill="#18008C"/>
<path d="M1.45658 39.9013C1.3398 39.8353 1.24723 39.7449 1.18172 39.6301C1.11621 39.5152 1.08203 39.3846 1.08203 39.2382C1.08203 39.0919 1.11479 38.9613 1.18172 38.8464C1.24723 38.7316 1.3398 38.6412 1.45658 38.5766C1.57336 38.512 1.70581 38.4805 1.8525 38.4805C1.99919 38.4805 2.13021 38.512 2.24699 38.5766C2.36377 38.6412 2.45492 38.7316 2.52043 38.8464C2.58594 38.9613 2.62012 39.0919 2.62012 39.2382C2.62012 39.3846 2.58736 39.5152 2.52043 39.6301C2.45349 39.7449 2.36377 39.8353 2.24699 39.9013C2.13021 39.9673 1.99919 39.9989 1.8525 39.9989C1.70581 39.9989 1.57336 39.9659 1.45658 39.9013ZM2.10885 39.6975C2.18433 39.653 2.24272 39.5913 2.28544 39.5124C2.32817 39.4334 2.34953 39.3416 2.34953 39.2382C2.34953 39.1349 2.32817 39.0445 2.28544 38.9641C2.24272 38.8852 2.18433 38.8235 2.10885 38.7804C2.03337 38.7374 1.94792 38.7158 1.85392 38.7158C1.75993 38.7158 1.67448 38.7374 1.599 38.7804C1.52352 38.8235 1.4637 38.8852 1.42098 38.9641C1.37826 39.0431 1.35547 39.1349 1.35547 39.2382C1.35547 39.3416 1.37683 39.432 1.42098 39.5124C1.46513 39.5927 1.52352 39.6544 1.599 39.6975C1.67448 39.742 1.75993 39.7635 1.85392 39.7635C1.94792 39.7635 2.03337 39.742 2.10885 39.6975Z" fill="#18008C"/>
<path d="M3.45308 38.544C3.54423 38.4995 3.65531 38.4766 3.78491 38.4766V38.7378C3.77067 38.7363 3.74931 38.7349 3.72367 38.7349C3.57841 38.7349 3.46448 38.7779 3.38188 38.8655C3.29928 38.953 3.25798 39.0765 3.25798 39.2372V39.9792H2.99023V38.4895H3.24658V38.7392C3.29358 38.6531 3.36194 38.5871 3.45308 38.5426V38.544Z" fill="#18008C"/>
<path d="M5.20296 38.261V38.9471H6.18136V39.1882H5.20296V39.9833H4.92383V38.0156H6.30099V38.2596H5.20296V38.261Z" fill="#18008C"/>
<path d="M7.98515 38.4936V39.9833H7.73165V39.758C7.67753 39.8355 7.60632 39.8944 7.51803 39.936C7.42973 39.9776 7.33289 39.9991 7.22892 39.9991C7.03239 39.9991 6.87716 39.9446 6.76322 39.8341C6.64929 39.725 6.59375 39.5628 6.59375 39.349V38.4922H6.86149V39.3189C6.86149 39.4638 6.89567 39.5729 6.96403 39.6461C7.03239 39.7207 7.13066 39.7566 7.26025 39.7566C7.40125 39.7566 7.51233 39.7135 7.59493 39.6274C7.67611 39.5413 7.71741 39.4193 7.71741 39.2614V38.4922H7.98515V38.4936Z" fill="#18008C"/>
<path d="M9.32764 39.8959C9.28919 39.9304 9.24076 39.9562 9.18237 39.9734C9.12398 39.9906 9.06559 40.0007 9.00435 40.0007C8.85624 40.0007 8.74089 39.9605 8.65829 39.8801C8.57711 39.7998 8.53581 39.685 8.53581 39.5343V38.7162H8.28516V38.4938H8.53581V38.168H8.80355V38.4938H9.22795V38.7162H8.80355V39.5228C8.80355 39.6032 8.82349 39.6649 8.86336 39.7079C8.90324 39.751 8.96021 39.7725 9.03426 39.7725C9.11544 39.7725 9.18522 39.7495 9.24361 39.7022L9.32764 39.8959Z" fill="#18008C"/>
<path d="M11.0281 38.4936V39.9833H10.7746V39.758C10.7205 39.8355 10.6493 39.8944 10.561 39.936C10.4727 39.9776 10.3759 39.9991 10.2719 39.9991C10.0754 39.9991 9.92012 39.9446 9.80619 39.8341C9.69226 39.725 9.63672 39.5628 9.63672 39.349V38.4922H9.90446V39.3189C9.90446 39.4638 9.93864 39.5729 10.007 39.6461C10.0754 39.7207 10.1736 39.7566 10.3032 39.7566C10.4442 39.7566 10.5553 39.7135 10.6379 39.6274C10.7191 39.5413 10.7604 39.4193 10.7604 39.2614V38.4922H11.0281V38.4936Z" fill="#18008C"/>
<path d="M12.0019 38.544C12.0931 38.4995 12.2041 38.4766 12.3337 38.4766V38.7378C12.3195 38.7363 12.2981 38.7349 12.2725 38.7349C12.1272 38.7349 12.0133 38.7779 11.9307 38.8655C11.8481 38.953 11.8068 39.0765 11.8068 39.2372V39.9792H11.5391V38.4895H11.7954V38.7392C11.8424 38.6531 11.9108 38.5871 12.0019 38.5426V38.544Z" fill="#18008C"/>
<path d="M13.9786 39.3248H12.7795C12.7966 39.4554 12.8535 39.5616 12.9504 39.6405C13.0486 39.7194 13.1697 39.7596 13.3149 39.7596C13.4915 39.7596 13.634 39.6993 13.7422 39.5802L13.8903 39.7539C13.8234 39.8328 13.7408 39.8931 13.6411 39.9333C13.5414 39.9735 13.4303 39.995 13.3078 39.995C13.1512 39.995 13.013 39.9634 12.892 39.8988C12.7709 39.8342 12.6783 39.7438 12.6114 39.6276C12.5459 39.5113 12.5117 39.3807 12.5117 39.2343C12.5117 39.088 12.5445 38.9602 12.6086 38.844C12.6726 38.7277 12.7609 38.6373 12.8735 38.5727C12.986 38.5081 13.1127 38.4766 13.2537 38.4766C13.3947 38.4766 13.5214 38.5081 13.6311 38.5727C13.7422 38.6373 13.8276 38.7277 13.8903 38.844C13.953 38.9602 13.9843 39.0937 13.9843 39.243C13.9843 39.263 13.9829 39.2903 13.9786 39.3248ZM12.9318 38.8224C12.845 38.9014 12.7951 39.0047 12.7795 39.131H13.7279C13.7137 39.0061 13.6624 38.9028 13.5756 38.8239C13.4887 38.7449 13.3819 38.7048 13.2537 38.7048C13.1255 38.7048 13.0187 38.7435 12.9318 38.8224Z" fill="#18008C"/>
<path d="M15.1426 38.0156H15.4217V39.9833H15.1426V38.0156Z" fill="#18008C"/>
<path d="M17.2049 38.6441C17.316 38.7532 17.3715 38.9139 17.3715 39.1263V39.9831H17.1038V39.1564C17.1038 39.0129 17.0696 38.9038 17.0013 38.8307C16.9329 38.7575 16.8346 38.7216 16.705 38.7216C16.5598 38.7216 16.4458 38.7646 16.3618 38.8493C16.2778 38.934 16.2365 39.0574 16.2365 39.2153V39.9831H15.9688V38.4934H16.2251V38.7187C16.2792 38.6412 16.3518 38.5824 16.4444 38.5422C16.537 38.502 16.641 38.4805 16.7577 38.4805C16.9457 38.4805 17.0953 38.535 17.2049 38.6441Z" fill="#18008C"/>
<path d="M19.2712 37.896V39.9813H19.0149V39.7459C18.955 39.8277 18.8796 39.8909 18.7884 39.9339C18.6973 39.977 18.5976 39.9985 18.4879 39.9985C18.3441 39.9985 18.2159 39.9669 18.1034 39.9024C17.9895 39.8392 17.9012 39.7488 17.8371 39.634C17.773 39.5192 17.7402 39.3857 17.7402 39.2364C17.7402 39.0872 17.773 38.9551 17.8371 38.8403C17.9012 38.7255 17.9895 38.6365 18.1034 38.5734C18.2173 38.5102 18.3455 38.4772 18.4879 38.4772C18.5933 38.4772 18.6916 38.4973 18.7813 38.5375C18.871 38.5777 18.9451 38.6365 19.0049 38.7155V37.8945H19.2726L19.2712 37.896ZM18.7642 39.6957C18.8411 39.6512 18.8995 39.5895 18.9422 39.5105C18.9849 39.4316 19.0063 39.3398 19.0063 39.2364C19.0063 39.1331 18.9849 39.0427 18.9422 38.9623C18.8995 38.8834 18.8397 38.8217 18.7642 38.7786C18.6887 38.7355 18.6033 38.714 18.5107 38.714C18.4181 38.714 18.3313 38.7355 18.2558 38.7786C18.1803 38.8217 18.1205 38.8834 18.0778 38.9623C18.035 39.0412 18.0122 39.1331 18.0122 39.2364C18.0122 39.3398 18.0336 39.4302 18.0778 39.5105C18.1219 39.5909 18.1803 39.6526 18.2558 39.6957C18.3313 39.7402 18.4167 39.7617 18.5107 39.7617C18.6047 39.7617 18.6887 39.7402 18.7642 39.6957Z" fill="#18008C"/>
<path d="M21.1551 38.4936V39.9833H20.9016V39.758C20.8475 39.8355 20.7762 39.8944 20.6879 39.936C20.5997 39.9776 20.5042 39.9991 20.3988 39.9991C20.2023 39.9991 20.0471 39.9446 19.9331 39.8341C19.8192 39.725 19.7637 39.5628 19.7637 39.349V38.4922H20.0314V39.3189C20.0314 39.4638 20.0656 39.5729 20.134 39.6461C20.2023 39.7207 20.3006 39.7566 20.4302 39.7566C20.5712 39.7566 20.6823 39.7135 20.7649 39.6274C20.846 39.5413 20.8873 39.4193 20.8873 39.2614V38.4922H21.1551V38.4936Z" fill="#18008C"/>
<path d="M21.7406 39.9501C21.6295 39.9171 21.5412 39.8755 21.4785 39.8252L21.5896 39.6114C21.6551 39.6588 21.7334 39.6961 21.826 39.7233C21.9186 39.752 22.0126 39.765 22.108 39.765C22.343 39.765 22.4598 39.6975 22.4598 39.5626C22.4598 39.5181 22.4441 39.4822 22.4128 39.4564C22.3814 39.4306 22.3416 39.4105 22.2946 39.399C22.2476 39.3875 22.1792 39.3732 22.0923 39.3588C21.9741 39.3401 21.8759 39.3186 21.8004 39.2942C21.7249 39.2698 21.6608 39.2282 21.6067 39.1708C21.5526 39.1134 21.5255 39.0316 21.5255 38.9268C21.5255 38.7919 21.5811 38.6843 21.6921 38.6025C21.8032 38.5207 21.9528 38.4805 22.1407 38.4805C22.239 38.4805 22.3373 38.492 22.437 38.5163C22.5352 38.5407 22.6164 38.5738 22.6791 38.6154L22.5651 38.8292C22.4441 38.7503 22.3017 38.7115 22.1379 38.7115C22.024 38.7115 21.9385 38.7302 21.8787 38.7675C21.8189 38.8048 21.789 38.8551 21.789 38.9168C21.789 38.9656 21.8061 39.0043 21.8388 39.0316C21.8716 39.0603 21.9143 39.0804 21.9627 39.0933C22.0126 39.1062 22.0809 39.122 22.1707 39.1378C22.2889 39.1579 22.3857 39.1808 22.4598 39.2038C22.5324 39.2268 22.5965 39.2669 22.6477 39.3229C22.699 39.3789 22.7261 39.4578 22.7261 39.5597C22.7261 39.6946 22.6691 39.8023 22.5552 39.8812C22.4412 39.9601 22.2846 40.0003 22.0881 40.0003C21.967 40.0003 21.8516 39.9845 21.7391 39.9515L21.7406 39.9501Z" fill="#18008C"/>
<path d="M23.8921 39.8959C23.8536 39.9304 23.8052 39.9562 23.7468 39.9734C23.6884 39.9906 23.63 40.0007 23.5688 40.0007C23.4207 40.0007 23.3053 39.9605 23.2227 39.8801C23.1416 39.7998 23.1003 39.685 23.1003 39.5343V38.7162H22.8496V38.4938H23.1003V38.168H23.368V38.4938H23.7924V38.7162H23.368V39.5228C23.368 39.6032 23.3879 39.6649 23.4278 39.7079C23.4677 39.751 23.5247 39.7725 23.5987 39.7725C23.6799 39.7725 23.7497 39.7495 23.8081 39.7022L23.8921 39.8959Z" fill="#18008C"/>
<path d="M24.6796 38.544C24.7708 38.4995 24.8819 38.4766 25.0115 38.4766V38.7378C24.9958 38.7363 24.9759 38.7349 24.9502 38.7349C24.805 38.7349 24.691 38.7779 24.6084 38.8655C24.5258 38.953 24.4845 39.0765 24.4845 39.2372V39.9792H24.2168V38.4895H24.4731V38.7392C24.5201 38.6531 24.5885 38.5871 24.6796 38.5426V38.544Z" fill="#18008C"/>
<path d="M25.3442 38.1554C25.3101 38.121 25.293 38.0808 25.293 38.032C25.293 37.9832 25.3101 37.9416 25.3442 37.9071C25.3784 37.8727 25.4211 37.8555 25.4738 37.8555C25.5265 37.8555 25.5693 37.8713 25.6034 37.9043C25.6376 37.9373 25.6547 37.9775 25.6547 38.0263C25.6547 38.0751 25.6376 38.1195 25.6034 38.154C25.5693 38.1884 25.5265 38.2057 25.4738 38.2057C25.4211 38.2057 25.3784 38.1884 25.3442 38.1554ZM25.3414 38.4927H25.6091V39.9824H25.3414V38.4927Z" fill="#18008C"/>
<path d="M27.4488 39.3248H26.2496C26.2667 39.4554 26.3237 39.5616 26.4205 39.6405C26.5174 39.7194 26.6399 39.7596 26.7837 39.7596C26.9603 39.7596 27.1027 39.6993 27.2109 39.5802L27.3591 39.7539C27.2921 39.8328 27.2095 39.8931 27.1098 39.9333C27.0101 39.9735 26.8991 39.995 26.7766 39.995C26.6199 39.995 26.4818 39.9634 26.3607 39.8988C26.2397 39.8342 26.1471 39.7438 26.0802 39.6276C26.0147 39.5113 25.9805 39.3807 25.9805 39.2343C25.9805 39.088 26.0132 38.9602 26.0773 38.844C26.1414 38.7277 26.2297 38.6373 26.3422 38.5727C26.4547 38.5081 26.5815 38.4766 26.7225 38.4766C26.8634 38.4766 26.9902 38.5081 27.0999 38.5727C27.2095 38.6373 27.2964 38.7277 27.3591 38.844C27.4217 38.9602 27.453 39.0937 27.453 39.243C27.453 39.263 27.4516 39.2903 27.4473 39.3248H27.4488ZM26.4006 38.8224C26.3137 38.9014 26.2639 39.0047 26.2482 39.131H27.1967C27.1825 39.0061 27.1312 38.9028 27.0443 38.8239C26.9574 38.7449 26.8506 38.7048 26.7225 38.7048C26.5943 38.7048 26.4875 38.7435 26.4006 38.8224Z" fill="#18008C"/>
<path d="M27.9007 39.9501C27.7896 39.9171 27.7013 39.8755 27.6387 39.8252L27.7498 39.6114C27.8153 39.6588 27.8936 39.6961 27.9862 39.7233C28.0787 39.752 28.1727 39.765 28.2681 39.765C28.5031 39.765 28.6199 39.6975 28.6199 39.5626C28.6199 39.5181 28.6042 39.4822 28.5729 39.4564C28.5416 39.4306 28.5017 39.4105 28.4547 39.399C28.4077 39.3875 28.3394 39.3732 28.2525 39.3588C28.1343 39.3401 28.036 39.3186 27.9605 39.2942C27.885 39.2698 27.821 39.2282 27.7668 39.1708C27.7127 39.1134 27.6857 39.0316 27.6857 38.9268C27.6857 38.7919 27.7412 38.6843 27.8523 38.6025C27.9634 38.5207 28.1129 38.4805 28.3009 38.4805C28.3992 38.4805 28.4974 38.492 28.5971 38.5163C28.6954 38.5407 28.7766 38.5738 28.8392 38.6154L28.7253 38.8292C28.6042 38.7503 28.4618 38.7115 28.2981 38.7115C28.1841 38.7115 28.0987 38.7302 28.0389 38.7675C27.979 38.8048 27.9491 38.8551 27.9491 38.9168C27.9491 38.9656 27.9662 39.0043 27.999 39.0316C28.0317 39.0603 28.0745 39.0804 28.1229 39.0933C28.1727 39.1062 28.2411 39.122 28.3308 39.1378C28.449 39.1579 28.5459 39.1808 28.6199 39.2038C28.6925 39.2268 28.7566 39.2669 28.8079 39.3229C28.8592 39.3789 28.8862 39.4578 28.8862 39.5597C28.8862 39.6946 28.8293 39.8023 28.7153 39.8812C28.6014 39.9601 28.4447 40.0003 28.2482 40.0003C28.1272 40.0003 28.0118 39.9845 27.8993 39.9515L27.9007 39.9501Z" fill="#18008C"/>
<path d="M18.2019 0.00430555H16.9188C16.8974 0.00143518 16.8746 0 16.8518 0H8.12318C7.45952 0 6.86992 0.427685 6.66057 1.06204L0.0738532 23.6446C-0.263672 24.8043 0.597942 25.9668 1.7985 25.9668H8.5903C9.38783 25.9668 10.0899 25.4372 10.3149 24.6665L17.0939 1.45815C17.0982 1.45097 17.1025 1.44379 17.1053 1.43949C17.1609 1.35625 17.2121 1.27014 17.2719 1.18977C17.3887 1.03046 17.5169 0.886943 17.6579 0.760647C17.8815 0.561157 18.1364 0.407592 18.4326 0.308564C18.6334 0.245416 18.7403 0.222453 19.0678 0.170787C19.0678 0.170787 18.6534 -0.0243981 18.2019 0.00430555Z" fill="url(#paint0_linear_5857_24155)"/>
<path d="M29.9272 23.7643L27.1601 12.8942C26.871 12.0245 26.0621 11.4375 25.152 11.4375H16.14H13.6562C13.6862 11.4461 13.7189 11.4519 13.7545 11.4519C15.8281 11.8724 16.6712 13.7123 16.9133 14.3854L19.6035 24.6369C19.8029 25.3975 20.4851 25.9257 21.2655 25.9257H28.2638C29.386 25.9257 30.2078 24.8593 29.9286 23.7629L29.9272 23.7643Z" fill="url(#paint1_linear_5857_24155)"/>
<path d="M18.2406 0.00390625H9.22852L12.7846 10.7233C12.9313 11.1639 13.3415 11.4624 13.8029 11.4624H23.5669L20.2486 1.46062C19.9609 0.590896 19.152 0.00390625 18.2406 0.00390625Z" fill="url(#paint2_linear_5857_24155)"/>
<path d="M28.7289 3.93658C29.086 2.41146 28.1488 0.883293 26.6353 0.52333C25.1219 0.163368 23.6055 1.10792 23.2483 2.63305C22.8911 4.15817 23.8284 5.68634 25.3418 6.0463C26.8552 6.40626 28.3717 5.46171 28.7289 3.93658Z" fill="url(#paint3_linear_5857_24155)"/>
</g>
<defs>
<linearGradient id="paint0_linear_5857_24155" x1="10.0358" y1="0.568333" x2="8.93955" y2="25.4939" gradientUnits="userSpaceOnUse">
<stop stop-color="#AD2EFF"/>
<stop offset="0.52" stop-color="#007EFC"/>
<stop offset="1" stop-color="#5DE3F9"/>
</linearGradient>
<linearGradient id="paint1_linear_5857_24155" x1="23.0343" y1="26.3361" x2="21.1764" y2="13.4278" gradientUnits="userSpaceOnUse">
<stop stop-color="#AD2EFF"/>
<stop offset="0.52" stop-color="#007EFC"/>
<stop offset="1" stop-color="#5DE3F9"/>
</linearGradient>
<linearGradient id="paint2_linear_5857_24155" x1="16.8819" y1="10.4434" x2="15.6296" y2="-1.57569" gradientUnits="userSpaceOnUse">
<stop stop-color="#AD2EFF"/>
<stop offset="0.52" stop-color="#007EFC"/>
<stop offset="1" stop-color="#5DE3F9"/>
</linearGradient>
<linearGradient id="paint3_linear_5857_24155" x1="25.9898" y1="6.25963" x2="25.9898" y2="0.725558" gradientUnits="userSpaceOnUse">
<stop stop-color="#AD2EFF"/>
<stop offset="0.52" stop-color="#007EFC"/>
<stop offset="1" stop-color="#5DE3F9"/>
</linearGradient>
<clipPath id="clip0_5857_24155">
<rect width="41" height="40" fill="white"/>
</clipPath>
</defs>
</svg>
