<?xml version="1.0" encoding="utf-8"?>
<!-- Generator: Adobe Illustrator 26.0.0, SVG Export Plug-In . SVG Version: 6.00 Build 0)  -->
<svg version="1.1" id="Layer_1" xmlns="http://www.w3.org/2000/svg" xmlns:xlink="http://www.w3.org/1999/xlink" x="0px" y="0px"
	 viewBox="0 0 621 118.8" style="enable-background:new 0 0 621 118.8;" xml:space="preserve">
<style type="text/css">
	.st0{fill:none;}
	.st1{fill:#339EF9;}
	.st2{fill:#EF4E23;}
	.st3{fill:#FFC828;}
	.st4{opacity:0.28;fill:#FFC828;enable-background:new    ;}
	.st5{opacity:0.41;fill:#FFC828;enable-background:new    ;}
	.st6{opacity:0.56;fill:#339EF9;enable-background:new    ;}
	.st7{opacity:0.45;fill:#339EF9;enable-background:new    ;}
	.st8{opacity:0.36;fill:#EF4E23;enable-background:new    ;}
	.st9{opacity:0.41;fill:#EF4E23;enable-background:new    ;}
	.st10{opacity:0.83;fill:#EF4E23;enable-background:new    ;}
	.st11{enable-background:new    ;}
	.st12{fill:#3A3E63;}
	.st13{fill:#A2A6BC;}
</style>
<g>
	<g>
		<polygon class="st0" points="47.8,59.4 47.8,59.4 47.8,59.4 47.8,59.4 		"/>
		<path class="st0" d="M63.7,31.8L63.7,31.8L63.7,31.8z"/>
		<polygon class="st0" points="47.8,59.4 47.8,59.4 47.8,59.4 47.8,59.4 		"/>
		<polygon class="st0" points="47.8,59.4 47.8,59.4 47.8,59.4 		"/>
		<polygon class="st0" points="47.8,59.4 47.8,59.4 47.8,59.4 47.8,59.4 		"/>
		<polygon class="st0" points="15.9,59.4 15.9,59.4 15.9,59.4 15.9,59.4 		"/>
		<polygon class="st0" points="47.8,59.4 47.8,59.4 47.8,59.4 47.8,59.4 		"/>
		<polygon class="st0" points="47.8,59.4 47.8,59.4 47.8,59.4 		"/>
		<path class="st0" d="M63.7,87L63.7,87L63.7,87L63.7,87C63.7,87,63.7,87,63.7,87z"/>
		<polygon class="st0" points="47.8,59.4 47.8,59.4 47.8,59.4 		"/>
		<polygon class="st0" points="63.7,87 63.7,87 63.7,87 		"/>
		<polygon points="31.8,50.2 31.8,50.2 39.8,45.6 		"/>
		<polygon points="63.7,31.9 63.7,31.9 63.7,31.8 63.7,31.8 		"/>
		<path d="M47.8,59.4L47.8,59.4L47.8,59.4z"/>
		<path d="M63.7,31.8c-0.2,0.1-0.5,0.2-0.7,0.4L63.7,31.8C63.7,31.9,63.7,31.8,63.7,31.8z"/>
		<path class="st1" d="M63,32.2c0.2-0.1,0.4-0.3,0.7-0.4c0-11.8-6.4-22.1-15.9-27.6C43.1,1.6,37.7,0,31.8,0C14.3,0,0,14.3,0,31.8
			l0,0c0,11.8,6.4,22.1,15.9,27.6l15.9-9.2L15.9,41V22.6l15.9-9.2l15.9,9.2V41v18.4l0,0l0,0v0l0,0l15.9,9.2v0V50.2v0V31.9l0,0
			L63,32.2z"/>
		<polygon points="47.8,59.4 47.8,59.4 47.8,59.4 		"/>
		<path class="st2" d="M63.7,87l-15.9-9.2v18.4l-15.9,9.2l-15.9-9.2V77.8l0,0l15.9-9.2l15.9-9.2c0,0,0,0,0,0c0,0,0,0,0,0
			c0,0,0,0,0,0l0,0l0,0V41l-8,4.6l-8,4.6l-15.9,9.2c0,0,0,0,0,0c0,0,0,0,0,0C6.4,64.9,0,75.2,0,87l0,0l0,0
			c0,17.6,14.3,31.8,31.8,31.8c5.8,0,11.2-1.6,15.9-4.3C57.3,109.1,63.7,98.8,63.7,87C63.7,87,63.7,87,63.7,87z"/>
		<path class="st3" d="M95.5,31.8c-4.7-2.7-10.1-4.3-15.9-4.3c-5.5,0-10.7,1.4-15.2,3.8l-0.8,0.5v18.4L79.6,41l0,0l15.9,9.2v18.4
			l-15.9,9.2l-15.9-9.2v0l-15.9-9.2v0l0,0c0,0,0,0,0,0l-15.9,9.2l8,4.6l8,4.6L63.7,87c0,0,0,0,0,0l0,0c4.7,2.7,10.1,4.3,15.9,4.3
			s11.2-1.6,15.9-4.3c9.5-5.5,15.9-15.8,15.9-27.6C111.4,47.6,105.1,37.3,95.5,31.8z"/>
		<path class="st4" d="M63.7,87c-9.5-5.5-15.9-15.8-15.9-27.5l0,0c0,0,0,0,0,0l-15.9,9.2l8,4.6l8,4.6L63.7,87
			C63.7,87,63.7,87,63.7,87z"/>
		<polygon class="st5" points="31.8,68.6 34.9,70.4 47.8,59.4 		"/>
		<path class="st6" d="M31.8,50.2L31.8,50.2l-19,7.1c1,0.7,2,1.4,3.1,2l0.1,0l15.8-9.1L31.8,50.2L31.8,50.2z"/>
		<path class="st7" d="M63.7,31.9c0,11.8-6.4,22.1-15.9,27.6l0,0v0l0,0l15.9,9.2v0V50.2v0L63.7,31.9L63.7,31.9z"/>
		<polygon class="st6" points="63.7,68.6 63.7,65.9 47.8,59.4 		"/>
		<path class="st8" d="M63.5,90.5c0.1-1.2,0.2-2.3,0.2-3.5l0,0l-15.9-9.2L63.5,90.5z"/>
		<path class="st9" d="M39.8,45.6l-8,4.6l-15.9,9.2c0,0,0,0,0,0c4.7-2.7,10.1-4.3,15.9-4.3c5.8,0,11.2,1.6,15.9,4.3c0,0,0,0,0,0
			c0,0,0,0,0,0l0,0l0,0V41L39.8,45.6z"/>
		<polygon class="st10" points="47.8,41 45,42.6 47.8,59.4 		"/>
		<path class="st5" d="M64.5,31.4l-0.8,0.5v18.4l3-19.9C65.9,30.6,65.2,31,64.5,31.4z"/>
	</g>
	<g class="st11">
		<path class="st12" d="M162.1,51.1h-5.7V59h-8.1v-7.9h-17.1l-1-6.6l20.2-25h6v25h6.5L162.1,51.1z M138.8,44.5h9.5V32.4L138.8,44.5z
			"/>
	</g>
	<g class="st11">
		<path class="st12" d="M196.1,59h-26.7V19.7h8.5v32.7H195L196.1,59z"/>
		<path class="st12" d="M209.3,22.3c0,1.3-0.5,2.4-1.4,3.3c-0.9,0.9-2.1,1.4-3.4,1.4c-1.3,0-2.4-0.5-3.3-1.4c-0.9-0.9-1.3-2-1.3-3.3
			c0-1.3,0.4-2.4,1.3-3.4c0.9-0.9,2-1.4,3.3-1.4c1.3,0,2.4,0.5,3.4,1.4C208.8,19.9,209.3,21,209.3,22.3z M208.7,30.9V59h-8.5V30.9
			H208.7z"/>
		<path class="st12" d="M229.3,18.4c1,0,2.2,0.2,3.5,0.6c1.3,0.4,2.2,0.9,2.8,1.4l-2.4,6c-0.6-0.3-1.2-0.5-1.8-0.6
			c-0.6-0.2-1.1-0.2-1.6-0.2c-1.3,0-2.3,0.4-2.9,1.3c-0.6,0.8-0.9,2-0.9,3.4V32h6.1l1.9,6.7h-8V59h-8.5V38.6H213V32h4.5v-2.9
			c0-3.4,1.1-6,3.3-7.9C222.9,19.3,225.8,18.4,229.3,18.4z"/>
		<path class="st12" d="M252.5,30.1c4.4,0,7.7,1.4,9.8,4.3c2.1,2.9,3.2,6.3,3.2,10.3v2.8h-18.3c0.4,1.6,1.2,2.8,2.4,3.7
			c1.2,0.9,2.8,1.3,4.7,1.3c1.3,0,2.5-0.1,3.6-0.4c1.1-0.3,2.3-0.7,3.6-1.4l2.5,6c-1.4,1.1-3.2,1.8-5.2,2.3c-2,0.4-3.7,0.6-4.9,0.6
			c-4.7,0-8.6-1.3-11.4-3.8c-2.9-2.6-4.3-6.2-4.3-10.8c0-4.5,1.3-8.2,4-10.8S248.1,30.1,252.5,30.1z M252.2,37.2
			c-1.3,0-2.4,0.4-3.4,1.3c-0.9,0.8-1.5,2-1.8,3.6h10.2c-0.3-1.5-0.8-2.6-1.7-3.5C254.8,37.6,253.7,37.2,252.2,37.2z"/>
		<path class="st12" d="M279.8,18.2V59h-8.4V18.8L279.8,18.2z"/>
		<path class="st12" d="M300.8,30.1c4.6,0,8.3,1.3,11,4c2.7,2.7,4.1,6.4,4.1,11c0,4.6-1.4,8.1-4.3,10.6c-2.9,2.5-6.6,3.8-11.2,3.8
			c-4.5,0-8-1.3-10.7-3.9c-2.6-2.6-4-6.2-4-10.9c0-4.6,1.4-8.2,4.2-10.8C292.7,31.4,296.4,30.1,300.8,30.1z M300.5,52.5
			c2,0,3.6-0.6,4.8-1.8c1.2-1.2,1.8-3,1.8-5.6c0-2.4-0.5-4.3-1.6-5.8c-1.1-1.4-2.6-2.2-4.6-2.2c-2,0-3.5,0.6-4.7,1.9
			c-1.1,1.3-1.7,3.2-1.7,5.7c0,2.5,0.5,4.4,1.5,5.7C297.1,51.9,298.6,52.5,300.5,52.5z"/>
		<path class="st12" d="M338.6,29.9c3.9,0,6.6,1.1,8.2,3.3c1.6,2.2,2.5,5,2.5,8.2V59h-8.5V41.8c0-1.5-0.4-2.7-1.2-3.6
			c-0.8-0.8-1.9-1.2-3.3-1.2c-0.9,0-2,0.2-3.1,0.7s-2.2,1-3.1,1.6V59h-8.5V30.9h4.4l2.3,2.8c1.2-1.1,2.8-2,4.7-2.7
			C335,30.3,336.8,29.9,338.6,29.9z"/>
		<path class="st12" d="M383.3,31v28c0,3.6-1.2,6.6-3.6,8.8c-2.4,2.2-6.1,3.4-11.1,3.4c-1.2,0-3-0.3-5.3-0.8
			c-2.3-0.5-4.3-1.4-5.8-2.4l2.5-6c1.8,0.8,3.3,1.5,4.5,1.8c1.2,0.4,2.5,0.5,3.9,0.5c2.1,0,3.7-0.5,4.7-1.4c1.1-0.9,1.6-2.2,1.6-3.8
			v-1.3c-1.1,0.6-2.2,1-3.5,1.4s-2.4,0.5-3.6,0.5c-4.2,0-7.5-1.4-9.7-4.2c-2.2-2.8-3.3-6.3-3.3-10.5c0-4.2,1.1-7.8,3.4-10.7
			c2.3-2.9,5.6-4.3,10-4.3c1.4,0,3,0.3,4.7,1s3.2,1.5,4.4,2.5L379,31H383.3z M363.5,44.8c0,2,0.5,3.8,1.4,5.4c0.9,1.6,2.6,2.3,5,2.3
			c0.7,0,1.6-0.2,2.5-0.5c0.9-0.3,1.7-0.7,2.5-1.1V39c-0.8-0.5-1.6-1-2.5-1.4c-0.9-0.4-1.8-0.6-2.6-0.6c-2.3,0-3.9,0.9-4.8,2.6
			C363.9,41.3,363.5,43.1,363.5,44.8z"/>
		<path class="st12" d="M418.4,59h-26.7V19.7h8.5v32.7h17.1L418.4,59z"/>
		<path class="st12" d="M435.7,30.1c4.4,0,7.7,1.4,9.8,4.3c2.1,2.9,3.2,6.3,3.2,10.3v2.8h-18.3c0.4,1.6,1.2,2.8,2.4,3.7
			c1.2,0.9,2.8,1.3,4.7,1.3c1.3,0,2.5-0.1,3.6-0.4c1.1-0.3,2.3-0.7,3.6-1.4l2.5,6c-1.4,1.1-3.2,1.8-5.2,2.3c-2,0.4-3.7,0.6-4.9,0.6
			c-4.7,0-8.6-1.3-11.4-3.8c-2.9-2.6-4.3-6.2-4.3-10.8c0-4.5,1.3-8.2,4-10.8S431.4,30.1,435.7,30.1z M435.4,37.2
			c-1.3,0-2.4,0.4-3.4,1.3c-0.9,0.8-1.5,2-1.8,3.6h10.2c-0.3-1.5-0.8-2.6-1.7-3.5C438,37.6,436.9,37.2,435.4,37.2z"/>
		<path class="st12" d="M465.2,30.1c3.5,0,6.4,1,8.6,3c2.3,2,3.4,4.6,3.4,7.8V59h-4.2l-1.9-2.3c-1,0.8-2.2,1.6-3.6,2.1
			c-1.4,0.6-2.8,0.9-4.3,0.9c-3.5,0-6-0.9-7.7-2.6s-2.5-4-2.5-6.7c0-2.9,1-5.1,3-6.7s4.6-2.3,7.8-2.3h4.8c-0.1-1.2-0.5-2.1-1.2-2.8
			s-1.7-1-3-1c-1.2,0-2.5,0.2-4,0.5c-1.5,0.3-2.7,0.8-3.8,1.3l-2.3-6.7c1.2-0.7,2.9-1.3,5.1-1.8C461.8,30.4,463.7,30.1,465.2,30.1z
			 M463.4,52.9c0.9,0,1.8-0.2,2.7-0.6c0.9-0.4,1.8-1,2.7-1.8V47h-4.9c-1.1,0-2,0.3-2.6,1c-0.6,0.7-0.9,1.4-0.9,2.3
			c0,0.7,0.3,1.3,0.9,1.8C461.8,52.6,462.5,52.9,463.4,52.9z"/>
		<path class="st12" d="M499.8,30.9l1.7,6.8c-1.3,0-2.8,0.3-4.4,0.9c-1.6,0.6-3.2,1.6-4.6,2.8V59H484V31h4.3l2.5,3.7
			c1.2-1,2.5-1.8,4.2-2.6S498.2,30.9,499.8,30.9z"/>
		<path class="st12" d="M522.3,29.9c3.9,0,6.6,1.1,8.2,3.3c1.6,2.2,2.5,5,2.5,8.2V59h-8.5V41.8c0-1.5-0.4-2.7-1.2-3.6
			c-0.8-0.8-1.9-1.2-3.3-1.2c-0.9,0-2,0.2-3.1,0.7s-2.2,1-3.1,1.6V59h-8.5V30.9h4.4l2.3,2.8c1.2-1.1,2.8-2,4.7-2.7
			C518.7,30.3,520.6,29.9,522.3,29.9z"/>
		<path class="st12" d="M548.8,22.3c0,1.3-0.5,2.4-1.4,3.3S545.3,27,544,27c-1.3,0-2.4-0.5-3.3-1.4c-0.9-0.9-1.3-2-1.3-3.3
			c0-1.3,0.4-2.4,1.3-3.4c0.9-0.9,2-1.4,3.3-1.4c1.3,0,2.4,0.5,3.4,1.4C548.4,19.9,548.8,21,548.8,22.3z M548.3,30.9V59h-8.5V30.9
			H548.3z"/>
		<path class="st12" d="M572.4,29.9c3.9,0,6.6,1.1,8.2,3.3c1.6,2.2,2.5,5,2.5,8.2V59h-8.5V41.8c0-1.5-0.4-2.7-1.2-3.6
			c-0.8-0.8-1.9-1.2-3.3-1.2c-0.9,0-2,0.2-3.1,0.7s-2.2,1-3.1,1.6V59h-8.5V30.9h4.4l2.3,2.8c1.2-1.1,2.8-2,4.7-2.7
			C568.8,30.3,570.7,29.9,572.4,29.9z"/>
		<path class="st12" d="M617.2,31v28c0,3.6-1.2,6.6-3.6,8.8c-2.4,2.2-6.1,3.4-11.1,3.4c-1.2,0-3-0.3-5.3-0.8
			c-2.3-0.5-4.3-1.4-5.8-2.4l2.5-6c1.8,0.8,3.3,1.5,4.5,1.8c1.2,0.4,2.5,0.5,3.9,0.5c2.1,0,3.7-0.5,4.7-1.4c1.1-0.9,1.6-2.2,1.6-3.8
			v-1.3c-1.1,0.6-2.2,1-3.5,1.4s-2.4,0.5-3.6,0.5c-4.2,0-7.5-1.4-9.7-4.2c-2.2-2.8-3.3-6.3-3.3-10.5c0-4.2,1.1-7.8,3.4-10.7
			c2.3-2.9,5.6-4.3,10-4.3c1.4,0,3,0.3,4.7,1s3.2,1.5,4.4,2.5l1.8-2.3H617.2z M597.3,44.8c0,2,0.5,3.8,1.4,5.4
			c0.9,1.6,2.6,2.3,5,2.3c0.7,0,1.6-0.2,2.5-0.5c0.9-0.3,1.7-0.7,2.5-1.1V39c-0.8-0.5-1.6-1-2.5-1.4c-0.9-0.4-1.8-0.6-2.6-0.6
			c-2.3,0-3.9,0.9-4.8,2.6C597.8,41.3,597.3,43.1,597.3,44.8z"/>
	</g>
	<g class="st11">
		<path class="st13" d="M150.2,98.6l0-14.4L143,96.1h-1.8l-7.1-11.7v14.2h-3.8V76.9h3.3l8.6,14.4l8.5-14.4h3.3l0,21.7H150.2z"/>
		<path class="st13" d="M158.9,77c0-1.3,1.1-2.3,2.5-2.3s2.5,1,2.5,2.2c0,1.4-1,2.4-2.5,2.4C160,79.3,158.9,78.3,158.9,77z
			 M159.5,82.1h3.9v16.6h-3.9V82.1z"/>
		<path class="st13" d="M167.1,90.3c0-5,3.7-8.5,9-8.5c3.2,0,5.8,1.3,7.1,3.8l-3,1.7c-1-1.6-2.5-2.3-4.1-2.3c-2.9,0-5,2-5,5.2
			c0,3.2,2.2,5.2,5,5.2c1.6,0,3.1-0.7,4.1-2.3l3,1.7c-1.3,2.5-3.8,3.9-7.1,3.9C170.8,98.8,167.1,95.3,167.1,90.3z"/>
		<path class="st13" d="M196,81.9v3.7c-0.3-0.1-0.6-0.1-0.9-0.1c-2.9,0-4.8,1.7-4.8,5.1v8h-3.9V82.1h3.7v2.4
			C191.3,82.7,193.3,81.9,196,81.9z"/>
		<path class="st13" d="M197.8,90.3c0-5,3.7-8.5,8.8-8.5c5.1,0,8.8,3.5,8.8,8.5c0,5-3.7,8.5-8.8,8.5
			C201.5,98.8,197.8,95.3,197.8,90.3z M211.5,90.3c0-3.2-2.1-5.2-4.9-5.2c-2.8,0-4.9,2-4.9,5.2c0,3.2,2.1,5.2,4.9,5.2
			C209.4,95.5,211.5,93.5,211.5,90.3z"/>
		<path class="st13" d="M218.6,88.4h8.5v3.2h-8.5V88.4z"/>
		<path class="st13" d="M230.4,87.8c0-6.5,5-11.2,11.6-11.2c3.5,0,6.6,1.3,8.6,3.6l-2.6,2.5c-1.6-1.7-3.5-2.5-5.8-2.5
			c-4.5,0-7.8,3.2-7.8,7.6s3.3,7.6,7.8,7.6c2.3,0,4.2-0.8,5.8-2.6l2.6,2.5c-2,2.4-5.1,3.6-8.6,3.6C235.4,98.9,230.4,94.3,230.4,87.8
			z"/>
		<path class="st13" d="M263.7,81.9v3.7c-0.3-0.1-0.6-0.1-0.9-0.1c-2.9,0-4.8,1.7-4.8,5.1v8h-3.9V82.1h3.7v2.4
			C258.9,82.7,261,81.9,263.7,81.9z"/>
		<path class="st13" d="M282.4,91.6h-13c0.5,2.4,2.5,4,5.4,4c1.9,0,3.3-0.6,4.5-1.8l2.1,2.4c-1.5,1.8-3.8,2.7-6.7,2.7
			c-5.6,0-9.2-3.6-9.2-8.5c0-4.9,3.6-8.5,8.6-8.5c4.8,0,8.4,3.4,8.4,8.6C282.4,90.8,282.4,91.2,282.4,91.6z M269.3,89h9.4
			c-0.3-2.4-2.1-4-4.7-4C271.5,85,269.7,86.6,269.3,89z"/>
		<path class="st13" d="M302.4,75.6v23h-3.7v-2.1c-1.3,1.6-3.2,2.4-5.5,2.4c-4.8,0-8.4-3.3-8.4-8.5c0-5.2,3.6-8.5,8.4-8.5
			c2.1,0,4,0.7,5.3,2.2v-8.5H302.4z M298.5,90.3c0-3.2-2.1-5.2-4.9-5.2c-2.8,0-4.9,2-4.9,5.2c0,3.2,2.1,5.2,4.9,5.2
			C296.4,95.5,298.5,93.5,298.5,90.3z"/>
		<path class="st13" d="M323,91.6h-13c0.5,2.4,2.5,4,5.4,4c1.9,0,3.3-0.6,4.5-1.8l2.1,2.4c-1.5,1.8-3.8,2.7-6.7,2.7
			c-5.6,0-9.2-3.6-9.2-8.5c0-4.9,3.6-8.5,8.6-8.5c4.8,0,8.4,3.4,8.4,8.6C323,90.8,323,91.2,323,91.6z M309.9,89h9.4
			c-0.3-2.4-2.1-4-4.7-4C312.1,85,310.3,86.6,309.9,89z"/>
		<path class="st13" d="M343.1,89.1v9.5h-3.9v-9c0-2.9-1.5-4.4-3.9-4.4c-2.8,0-4.6,1.7-4.6,5v8.4h-3.9V82.1h3.7v2.1
			c1.3-1.5,3.3-2.3,5.7-2.3C340.1,81.9,343.1,84.1,343.1,89.1z"/>
		<path class="st13" d="M358,97.7c-0.9,0.7-2.3,1.1-3.7,1.1c-3.6,0-5.7-1.9-5.7-5.6v-8h-2.7v-3.1h2.7v-3.8h3.9v3.8h4.4v3.1h-4.4v7.9
			c0,1.6,0.8,2.5,2.3,2.5c0.8,0,1.6-0.2,2.2-0.7L358,97.7z"/>
		<path class="st13" d="M360.6,77c0-1.3,1.1-2.3,2.5-2.3s2.5,1,2.5,2.2c0,1.4-1,2.4-2.5,2.4C361.7,79.3,360.6,78.3,360.6,77z
			 M361.1,82.1h3.9v16.6h-3.9V82.1z"/>
		<path class="st13" d="M384,88.9v9.7h-3.7v-2c-0.9,1.4-2.7,2.2-5.2,2.2c-3.8,0-6.2-2.1-6.2-5c0-2.8,1.9-4.9,6.9-4.9h4.3v-0.2
			c0-2.3-1.4-3.6-4.1-3.6c-1.9,0-3.8,0.6-5,1.6l-1.5-2.8c1.8-1.4,4.3-2,7-2C381.2,81.9,384,84.1,384,88.9z M380.1,93.5v-1.9h-4
			c-2.6,0-3.3,1-3.3,2.2c0,1.4,1.2,2.3,3.2,2.3C377.8,96,379.4,95.2,380.1,93.5z"/>
		<path class="st13" d="M388.9,75.6h3.9v23h-3.9V75.6z"/>
		<path class="st13" d="M396,97l1.5-2.9c1.5,1,3.7,1.6,5.8,1.6c2.5,0,3.5-0.7,3.5-1.8c0-3.2-10.2-0.2-10.2-6.8
			c0-3.1,2.8-5.2,7.3-5.2c2.2,0,4.7,0.5,6.2,1.4l-1.5,2.9c-1.6-0.9-3.2-1.2-4.7-1.2c-2.4,0-3.5,0.8-3.5,1.9c0,3.4,10.2,0.4,10.2,6.9
			c0,3.1-2.9,5.1-7.5,5.1C400.3,98.8,397.5,98,396,97z"/>
	</g>
</g>
</svg>
